<svg width="571" height="340" viewBox="0 0 571 340" fill="none" xmlns="http://www.w3.org/2000/svg">
<g style="mix-blend-mode:soft-light" opacity="0.12">
<path d="M553.985 146.536H441.314C426.578 146.536 419.21 128.73 429.648 118.292L565.651 -17.7107C576.089 -28.1488 568.721 -45.9551 553.985 -45.9551H421.973C436.709 -45.9551 444.077 -28.1488 433.639 -17.7107L297.637 118.292C287.198 128.73 294.566 146.536 309.303 146.536H421.973C436.709 146.536 444.077 164.343 433.639 174.781L273.997 334.423C270.927 337.493 266.629 339.335 262.331 339.335H394.343C398.641 339.335 402.939 337.493 406.009 334.423L565.651 174.781C576.089 164.65 568.721 146.536 553.985 146.536Z" fill="white"/>
<path d="M238.079 182.149H145.977C134.004 182.149 127.864 167.413 136.46 159.124L247.596 47.9882C256.192 39.3921 250.052 24.9629 238.079 24.9629H130.32C142.293 24.9629 148.433 39.6991 139.837 47.9882L29.0088 158.817C20.4127 167.413 26.5527 181.842 38.5259 181.842H130.627C142.6 181.842 148.74 196.578 140.144 204.867L9.66752 335.344C7.21149 337.8 3.83444 339.335 0.150391 339.335H107.909C111.593 339.335 114.97 337.8 117.426 335.344L247.596 205.174C256.192 196.578 250.359 182.149 238.079 182.149Z" fill="white"/>
</g>
</svg>
